<svg width="36" height="25" viewBox="0 0 36 25" fill="none" xmlns="http://www.w3.org/2000/svg">
<path d="M1.9286 0C2.91632 0 3.71431 0.797991 3.71431 1.78571V16.0714H16.2143V7.14286C16.2143 6.15513 17.0123 5.35714 18 5.35714H30.5C33.4576 5.35714 35.8572 7.7567 35.8572 10.7143V23.2143C35.8572 24.202 35.0592 25 34.0715 25C33.0837 25 32.2857 24.202 32.2857 23.2143V21.4286H3.71431V23.2143C3.71431 24.202 2.91632 25 1.9286 25C0.940874 25 0.142883 24.202 0.142883 23.2143V1.78571C0.142883 0.797991 0.940874 0 1.9286 0ZM9.96431 5.35714C11.1483 5.35714 12.2838 5.82749 13.121 6.6647C13.9583 7.50192 14.4286 8.63743 14.4286 9.82143C14.4286 11.0054 13.9583 12.1409 13.121 12.9782C12.2838 13.8154 11.1483 14.2857 9.96431 14.2857C8.78031 14.2857 7.6448 13.8154 6.80759 12.9782C5.97037 12.1409 5.50003 11.0054 5.50003 9.82143C5.50003 8.63743 5.97037 7.50192 6.80759 6.6647C7.6448 5.82749 8.78031 5.35714 9.96431 5.35714Z" fill="#FFB800"/>
</svg>
