<svg width="20" height="20" viewBox="0 0 20 20" fill="none" xmlns="http://www.w3.org/2000/svg">
<path d="M4.28583 11.6667C3.66055 10.6427 3.33088 9.46565 3.33333 8.26585C3.33333 4.62085 6.31833 1.66669 10 1.66669C13.6817 1.66669 16.6667 4.62085 16.6667 8.26585C16.6691 9.46565 16.3395 10.6427 15.7142 11.6667" stroke="black" stroke-width="1.5" stroke-linecap="round" stroke-linejoin="round"/>
<path d="M11.6667 8.33337C11.1558 8.86921 10.5925 9.16671 10 9.16671M10 9.16671C9.4075 9.16671 8.84417 8.86921 8.33333 8.33337M10 9.16671V12.9167M12.5 15.8334L12.3917 16.3725C12.275 16.9617 12.2158 17.2559 12.0833 17.4892C11.8792 17.8488 11.5486 18.1197 11.1558 18.2492C10.9017 18.3334 10.6 18.3334 10 18.3334C9.4 18.3334 9.09833 18.3334 8.84417 18.25C8.45128 18.1203 8.12068 17.8491 7.91667 17.4892C7.78417 17.2559 7.725 16.9617 7.60833 16.3725L7.5 15.8334M6.1525 14.2484C6.07583 14.0184 6.0375 13.9025 6.04167 13.8092C6.04638 13.7127 6.07895 13.6196 6.13545 13.5412C6.19194 13.4629 6.26994 13.4025 6.36 13.3675C6.44667 13.3334 6.56833 13.3334 6.81 13.3334H13.19C13.4325 13.3334 13.5533 13.3334 13.64 13.3667C13.7302 13.4018 13.8083 13.4622 13.8648 13.5408C13.9213 13.6193 13.9538 13.7126 13.9583 13.8092C13.9625 13.9025 13.9242 14.0175 13.8475 14.2484C13.7058 14.6742 13.635 14.8875 13.5258 15.06C13.2975 15.4205 12.9396 15.6797 12.5258 15.7842C12.3275 15.8334 12.1042 15.8334 11.6567 15.8334H8.34333C7.89583 15.8334 7.67167 15.8334 7.47417 15.7834C7.06055 15.6791 6.70266 15.4202 6.47417 15.06C6.365 14.8875 6.29417 14.6742 6.1525 14.2484Z" stroke="black" stroke-width="1.5" stroke-linecap="round" stroke-linejoin="round"/>
</svg>
