<svg width="20" height="18" viewBox="0 0 20 18" fill="none" xmlns="http://www.w3.org/2000/svg">
<path d="M9.99334 12.3333H10.0008M10 9.83331V6.49997M4.43501 7.06914C6.44584 3.50997 7.45168 1.73081 8.83168 1.27247C9.59021 1.02067 10.4098 1.02067 11.1683 1.27247C12.5483 1.73081 13.5542 3.50997 15.565 7.06914C17.5767 10.6275 18.5817 12.4075 18.2808 13.8575C18.1142 14.6558 17.7058 15.3791 17.1125 15.9241C16.0342 16.9166 14.0225 16.9166 10 16.9166C5.97751 16.9166 3.96584 16.9166 2.88751 15.925C2.29188 15.3749 1.88334 14.6523 1.71918 13.8583C1.41751 12.4083 2.42334 10.6283 4.43501 7.06914Z" stroke="black" stroke-width="1.5" stroke-linecap="round" stroke-linejoin="round"/>
</svg>
