<svg width="22" height="21" viewBox="0 0 22 21" fill="none" xmlns="http://www.w3.org/2000/svg">
<path d="M0.84375 10.5C0.84375 4.89062 5.39062 0.34375 11 0.34375C16.6094 0.34375 21.1562 4.89062 21.1562 10.5C21.1562 16.1094 16.6094 20.6562 11 20.6562C5.39062 20.6562 0.84375 16.1094 0.84375 10.5ZM7.09375 5.8125C7.09375 6.24375 7.44375 6.59375 7.875 6.59375H9.4375C10.0625 6.59375 10.4917 6.84375 10.7812 7.20521C10.9417 7.40625 11.0667 7.65313 11.1479 7.92396H7.875C7.6678 7.92396 7.46909 8.00627 7.32257 8.15278C7.17606 8.29929 7.09375 8.49801 7.09375 8.70521C7.09375 8.91241 7.17606 9.11112 7.32257 9.25764C7.46909 9.40415 7.6678 9.48646 7.875 9.48646H11.1479C11.074 9.74838 10.9494 9.99327 10.7812 10.2073C10.4917 10.5687 10.0625 10.8187 9.4375 10.8187H7.875C7.72205 10.8188 7.57248 10.8638 7.44485 10.9481C7.31722 11.0324 7.21714 11.1523 7.15702 11.2929C7.0969 11.4336 7.07939 11.5888 7.10666 11.7393C7.13393 11.8898 7.20478 12.029 7.31042 12.1396L11.7375 16.7687C11.8821 16.912 12.0768 16.9932 12.2804 16.9951C12.4839 16.997 12.6801 16.9193 12.8273 16.7787C12.9744 16.638 13.0609 16.4455 13.0682 16.2421C13.0756 16.0387 13.0033 15.8405 12.8667 15.6896L9.69479 12.3719C10.1415 12.3485 10.5781 12.2304 10.9757 12.0255C11.3733 11.8206 11.7228 11.5335 12.001 11.1833C12.3875 10.6887 12.6456 10.1061 12.7521 9.4875H14.125C14.3322 9.4875 14.5309 9.40519 14.6774 9.25868C14.8239 9.11216 14.9062 8.91345 14.9062 8.70625C14.9062 8.49905 14.8239 8.30034 14.6774 8.15382C14.5309 8.00731 14.3322 7.925 14.125 7.925H12.7521C12.6684 7.45498 12.5005 7.00397 12.2563 6.59375H14.125C14.3322 6.59375 14.5309 6.51144 14.6774 6.36493C14.8239 6.21841 14.9062 6.0197 14.9062 5.8125C14.9062 5.6053 14.8239 5.40659 14.6774 5.26007C14.5309 5.11356 14.3322 5.03125 14.125 5.03125H7.875C7.6678 5.03125 7.46909 5.11356 7.32257 5.26007C7.17606 5.40659 7.09375 5.6053 7.09375 5.8125Z" fill="white" fill-opacity="0.5"/>
</svg>
