<svg width="20" height="19" viewBox="0 0 20 19" fill="none" xmlns="http://www.w3.org/2000/svg">
<path d="M12.0833 6.375C11.7882 6.375 11.541 6.275 11.3417 6.075C11.1424 5.875 11.0424 5.62778 11.0417 5.33333V1.16667C11.0417 0.871528 11.1417 0.624306 11.3417 0.425C11.5417 0.225695 11.7889 0.125694 12.0833 0.125H18.3333C18.6285 0.125 18.876 0.225 19.076 0.425C19.276 0.625 19.3757 0.872222 19.375 1.16667V5.33333C19.375 5.62847 19.275 5.87604 19.075 6.07604C18.875 6.27604 18.6278 6.37569 18.3333 6.375H12.0833ZM1.66667 10.5417C1.37153 10.5417 1.12431 10.4417 0.925 10.2417C0.725695 10.0417 0.625694 9.79445 0.625 9.5V1.16667C0.625 0.871528 0.725 0.624306 0.925 0.425C1.125 0.225695 1.37222 0.125694 1.66667 0.125H7.91667C8.21181 0.125 8.45938 0.225 8.65938 0.425C8.85938 0.625 8.95903 0.872222 8.95833 1.16667V9.5C8.95833 9.79514 8.85833 10.0427 8.65833 10.2427C8.45833 10.4427 8.21111 10.5424 7.91667 10.5417H1.66667ZM12.0833 18.875C11.7882 18.875 11.541 18.775 11.3417 18.575C11.1424 18.375 11.0424 18.1278 11.0417 17.8333V9.5C11.0417 9.20486 11.1417 8.95764 11.3417 8.75833C11.5417 8.55903 11.7889 8.45903 12.0833 8.45833H18.3333C18.6285 8.45833 18.876 8.55833 19.076 8.75833C19.276 8.95833 19.3757 9.20556 19.375 9.5V17.8333C19.375 18.1285 19.275 18.376 19.075 18.576C18.875 18.776 18.6278 18.8757 18.3333 18.875H12.0833ZM1.66667 18.875C1.37153 18.875 1.12431 18.775 0.925 18.575C0.725695 18.375 0.625694 18.1278 0.625 17.8333V13.6667C0.625 13.3715 0.725 13.1243 0.925 12.925C1.125 12.7257 1.37222 12.6257 1.66667 12.625H7.91667C8.21181 12.625 8.45938 12.725 8.65938 12.925C8.85938 13.125 8.95903 13.3722 8.95833 13.6667V17.8333C8.95833 18.1285 8.85833 18.376 8.65833 18.576C8.45833 18.776 8.21111 18.8757 7.91667 18.875H1.66667Z" fill="white"/>
</svg>
