<svg width="34" height="30" viewBox="0 0 34 30" fill="none" xmlns="http://www.w3.org/2000/svg">
<path d="M13.1539 0C16.5385 0 19.3077 2.84258 19.3077 6.31685C19.3077 9.79112 16.5385 12.6337 13.1539 12.6337C9.76927 12.6337 7.00004 9.79112 7.00004 6.31685C7.00004 2.84258 9.76927 0 13.1539 0ZM23.9231 26.8466L26.6923 29.6418C27.4616 30.4314 28.5385 29.7998 28.5385 28.868V22.109L32.8462 16.7397C33.0176 16.505 33.122 16.2261 33.1477 15.934C33.1733 15.6419 33.1192 15.3482 32.9915 15.0859C32.8637 14.8236 32.6673 14.603 32.4242 14.4488C32.1812 14.2946 31.9011 14.2129 31.6154 14.2129H20.8462C19.6154 14.2129 18.8462 15.7921 19.6154 16.7397L23.9231 22.109V26.8466ZM20.8462 23.2144L17.3077 18.7926C16.6923 18.003 16.3847 17.0555 16.3847 16.108C15.3077 15.7921 14.2308 15.7921 13.1539 15.7921C6.38465 15.7921 0.846191 18.6347 0.846191 22.109V25.2674H20.8462V23.2144Z" fill="#8857D8"/>
</svg>
