<svg width="19" height="19" viewBox="0 0 19 19" fill="none" xmlns="http://www.w3.org/2000/svg">
<path d="M2.70833 18.875C2.13542 18.875 1.64514 18.6712 1.2375 18.2635C0.829861 17.8559 0.625694 17.3653 0.625 16.7917V2.20833C0.625 1.63542 0.829167 1.14514 1.2375 0.7375C1.64583 0.329861 2.13611 0.125694 2.70833 0.125H8.95833C9.25347 0.125 9.50104 0.225 9.70104 0.425C9.90104 0.625 10.0007 0.872222 10 1.16667C9.9993 1.46111 9.89931 1.70868 9.7 1.90937C9.50069 2.11007 9.25347 2.20972 8.95833 2.20833H2.70833V16.7917H8.95833C9.25347 16.7917 9.50104 16.8917 9.70104 17.0917C9.90104 17.2917 10.0007 17.5389 10 17.8333C9.9993 18.1278 9.89931 18.3753 9.7 18.576C9.50069 18.7767 9.25347 18.8764 8.95833 18.875H2.70833ZM15.3906 10.5417H7.91667C7.62153 10.5417 7.37431 10.4417 7.175 10.2417C6.97569 10.0417 6.87569 9.79444 6.875 9.5C6.87431 9.20555 6.97431 8.95833 7.175 8.75833C7.37569 8.55833 7.62292 8.45833 7.91667 8.45833H15.3906L13.4375 6.50521C13.2465 6.31424 13.151 6.07986 13.151 5.80208C13.151 5.52431 13.2465 5.28125 13.4375 5.07292C13.6285 4.86458 13.8715 4.7559 14.1667 4.74687C14.4618 4.73785 14.7135 4.83785 14.9219 5.04687L18.6458 8.77083C18.8542 8.97917 18.9583 9.22222 18.9583 9.5C18.9583 9.77778 18.8542 10.0208 18.6458 10.2292L14.9219 13.9531C14.7135 14.1615 14.4663 14.2615 14.1802 14.2531C13.8941 14.2448 13.6465 14.1361 13.4375 13.9271C13.2465 13.7187 13.1556 13.4715 13.1646 13.1854C13.1736 12.8993 13.2733 12.6604 13.4635 12.4688L15.3906 10.5417Z" fill="white" fill-opacity="0.5"/>
</svg>
