<svg width="24" height="16" viewBox="0 0 24 16" fill="none" xmlns="http://www.w3.org/2000/svg">
<path d="M19.2917 2.29166H10.9583V9.58333H2.625V0.208328H0.541664V15.8333H2.625V12.7083H21.375V15.8333H23.4583V6.45833C23.4583 5.35326 23.0193 4.29345 22.2379 3.51205C21.4565 2.73065 20.3967 2.29166 19.2917 2.29166ZM6.79166 8.54166C7.62047 8.54166 8.41532 8.21242 9.00137 7.62637C9.58742 7.04032 9.91666 6.24546 9.91666 5.41666C9.91666 4.58786 9.58742 3.793 9.00137 3.20695C8.41532 2.6209 7.62047 2.29166 6.79166 2.29166C5.96286 2.29166 5.16801 2.6209 4.58196 3.20695C3.9959 3.793 3.66666 4.58786 3.66666 5.41666C3.66666 6.24546 3.9959 7.04032 4.58196 7.62637C5.16801 8.21242 5.96286 8.54166 6.79166 8.54166Z" fill="white" fill-opacity="0.5"/>
</svg>
