<svg width="20" height="19" viewBox="0 0 20 19" fill="none" xmlns="http://www.w3.org/2000/svg">
<path d="M2.70833 18.875C2.13542 18.875 1.64514 18.6712 1.2375 18.2635C0.829861 17.8559 0.625694 17.3653 0.625 16.7917V6.375C0.625 5.80208 0.829167 5.31181 1.2375 4.90417C1.64583 4.49653 2.13611 4.29236 2.70833 4.29167H4.79167V2.20833C4.79167 1.63542 4.99583 1.14514 5.40417 0.7375C5.8125 0.329861 6.30278 0.125694 6.875 0.125H13.125C13.6979 0.125 14.1885 0.329167 14.5969 0.7375C15.0052 1.14583 15.209 1.63611 15.2083 2.20833V8.45833H17.2917C17.8646 8.45833 18.3552 8.6625 18.7635 9.07083C19.1719 9.47917 19.3757 9.96944 19.375 10.5417V16.7917C19.375 17.3646 19.1712 17.8552 18.7635 18.2635C18.3559 18.6719 17.8653 18.8757 17.2917 18.875H11.0417V14.7083H8.95833V18.875H2.70833ZM2.70833 16.7917H4.79167V14.7083H2.70833V16.7917ZM2.70833 12.625H4.79167V10.5417H2.70833V12.625ZM2.70833 8.45833H4.79167V6.375H2.70833V8.45833ZM6.875 12.625H8.95833V10.5417H6.875V12.625ZM6.875 8.45833H8.95833V6.375H6.875V8.45833ZM6.875 4.29167H8.95833V2.20833H6.875V4.29167ZM11.0417 12.625H13.125V10.5417H11.0417V12.625ZM11.0417 8.45833H13.125V6.375H11.0417V8.45833ZM11.0417 4.29167H13.125V2.20833H11.0417V4.29167ZM15.2083 16.7917H17.2917V14.7083H15.2083V16.7917ZM15.2083 12.625H17.2917V10.5417H15.2083V12.625Z" fill="white" fill-opacity="0.5"/>
</svg>
