<svg width="18" height="21" viewBox="0 0 18 21" fill="none" xmlns="http://www.w3.org/2000/svg">
<path d="M10.0417 7.37501H15.7708L10.0417 1.64584V7.37501ZM2.75 0.0833435H11.0833L17.3333 6.33334V18.8333C17.3333 19.3859 17.1138 19.9158 16.7231 20.3065C16.3324 20.6972 15.8025 20.9167 15.25 20.9167H2.75C2.19746 20.9167 1.66756 20.6972 1.27686 20.3065C0.886157 19.9158 0.666664 19.3859 0.666664 18.8333V2.16668C0.666664 1.01043 1.59375 0.0833435 2.75 0.0833435ZM3.79166 18.8333H5.875V12.5833H3.79166V18.8333ZM7.95833 18.8333H10.0417V10.5H7.95833V18.8333ZM12.125 18.8333H14.2083V14.6667H12.125V18.8333Z" fill="white" fill-opacity="0.5"/>
</svg>
