<svg width="14" height="18" viewBox="0 0 14 18" fill="none" xmlns="http://www.w3.org/2000/svg">
<path d="M6.52625 16.8402C6.66243 16.9439 6.82886 17 7.00001 17C7.17116 17 7.33758 16.9439 7.47377 16.8402C8.92705 15.7496 13.222 12.1879 13.222 8.12588V3.74383C13.2229 3.63079 13.1819 3.52143 13.1069 3.43688C13.0318 3.35233 12.9281 3.2986 12.8158 3.28607C11.036 3.10377 9.33021 2.47854 7.8542 1.46747L7.312 1.09682C7.22018 1.03376 7.1114 1 7.00001 1C6.88862 1 6.77984 1.03376 6.68802 1.09682L6.14582 1.46747C4.6698 2.47854 2.96403 3.10377 1.18424 3.28607C1.07189 3.2986 0.968188 3.35233 0.89316 3.43688C0.818133 3.52143 0.777113 3.63079 0.77803 3.74383V8.12588C0.77803 12.1879 5.07297 15.7496 6.52625 16.8384" stroke="black" stroke-width="1.5" stroke-linecap="round" stroke-linejoin="round"/>
<path d="M5.05884 6H8.94119M5.05884 7.66659H8.94119M7.80896 12L5.05884 9.33318H6.02943C8.18625 9.33318 8.18625 6 6.02943 6" stroke="black" stroke-linecap="round" stroke-linejoin="round"/>
</svg>
