<svg width="21" height="20" viewBox="0 0 21 20" fill="none" xmlns="http://www.w3.org/2000/svg">
<path d="M11.5777 0C11.8717 0 12.1347 0.182998 12.2337 0.456996L12.9397 2.41398C13.1923 2.47664 13.4103 2.54064 13.5937 2.60598C13.7937 2.67731 14.0536 2.78731 14.3736 2.93597L16.0176 2.06598C16.1517 1.99456 16.3054 1.96872 16.4555 1.99235C16.6056 2.01598 16.7439 2.08781 16.8496 2.19698L18.2955 3.69197C18.4875 3.89096 18.5415 4.18196 18.4335 4.43596L17.6625 6.24294C17.7899 6.47761 17.8925 6.67894 17.9705 6.84694C18.0545 7.02893 18.1585 7.28226 18.2825 7.60693L20.0794 8.37692C20.3494 8.49192 20.5164 8.76192 20.4984 9.05091L20.3664 11.1259C20.3574 11.2607 20.309 11.3899 20.2272 11.4974C20.1455 11.605 20.0339 11.6862 19.9064 11.7309L18.2045 12.3359C18.1558 12.5705 18.1045 12.7725 18.0505 12.9419C17.9631 13.2043 17.8637 13.4626 17.7525 13.7159L18.6075 15.6059C18.6683 15.7386 18.6848 15.8873 18.6546 16.0301C18.6243 16.1729 18.5489 16.3022 18.4395 16.3988L16.8136 17.8508C16.7067 17.9464 16.573 18.0069 16.4307 18.0241C16.2883 18.0413 16.1441 18.0143 16.0176 17.9468L14.3416 17.0588C14.0797 17.1982 13.8092 17.3208 13.5317 17.4258L12.7997 17.6998L12.1497 19.4998C12.1011 19.6313 12.0141 19.7452 11.9 19.8267C11.7859 19.9082 11.6499 19.9535 11.5097 19.9568L9.6098 19.9998C9.46586 20.0032 9.32439 19.962 9.20468 19.882C9.08496 19.802 8.99282 19.6871 8.94082 19.5528L8.17485 17.5258C7.91357 17.4363 7.65482 17.3396 7.39888 17.2358C7.1896 17.1452 6.98349 17.0475 6.7809 16.9428L4.88096 17.7548C4.75582 17.8085 4.61775 17.8245 4.48365 17.8009C4.34956 17.7773 4.22526 17.715 4.12599 17.6218L2.72004 16.3028C2.61497 16.2053 2.54341 16.0771 2.51557 15.9365C2.48774 15.7959 2.50505 15.65 2.56504 15.5199L3.38202 13.7399C3.27375 13.5289 3.17302 13.3141 3.08003 13.0959C2.9717 12.8287 2.87166 12.5582 2.78004 12.2849L0.990099 11.7399C0.844605 11.6959 0.717703 11.6051 0.629101 11.4816C0.540499 11.3581 0.495157 11.2088 0.500116 11.0569L0.570113 9.13591C0.575313 9.01063 0.614554 8.88913 0.683617 8.78448C0.752681 8.67982 0.848958 8.59597 0.9621 8.54192L2.84003 7.63993C2.9267 7.32126 3.00336 7.07193 3.07003 6.89194C3.16438 6.65019 3.26914 6.41263 3.38402 6.17994L2.57004 4.45996C2.5078 4.32944 2.48879 4.18248 2.51576 4.04041C2.54274 3.89835 2.61429 3.76859 2.72004 3.66997L4.12399 2.34398C4.22228 2.25093 4.34543 2.18838 4.47854 2.16388C4.61164 2.13939 4.749 2.15401 4.87396 2.20598L6.7719 2.98997C6.98123 2.85064 7.17189 2.73597 7.34388 2.64597C7.54854 2.53798 7.8232 2.42264 8.16785 2.29998L8.82783 0.458996C8.87711 0.324589 8.96642 0.208525 9.08372 0.126453C9.20101 0.0443811 9.34065 0.000246607 9.48381 0L11.5777 0ZM10.5238 7.01893C8.85683 7.01893 7.50587 8.35392 7.50587 10.0019C7.50587 11.6499 8.85683 12.9859 10.5238 12.9859C12.1907 12.9859 13.5407 11.6499 13.5407 10.0019C13.5407 8.35392 12.1907 7.01893 10.5238 7.01893Z" fill="white" fill-opacity="0.5"/>
</svg>
