<svg width="28" height="30" viewBox="0 0 28 30" fill="none" xmlns="http://www.w3.org/2000/svg">
<path d="M14 15C18.1426 15 21.5 11.6426 21.5 7.5C21.5 3.35742 18.1426 0 14 0C9.85742 0 6.5 3.35742 6.5 7.5C6.5 11.6426 9.85742 15 14 15ZM19.6133 16.9102L16.8125 28.125L14.9375 20.1562L16.8125 16.875H11.1875L13.0625 20.1562L11.1875 28.125L8.38672 16.9102C4.20898 17.1094 0.875 20.5254 0.875 24.75V27.1875C0.875 28.7402 2.13477 30 3.6875 30H24.3125C25.8652 30 27.125 28.7402 27.125 27.1875V24.75C27.125 20.5254 23.791 17.1094 19.6133 16.9102Z" fill="#4CB050"/>
</svg>
