<svg width="26" height="16" viewBox="0 0 26 16" fill="none" xmlns="http://www.w3.org/2000/svg">
<path d="M13 0.729156C13.9669 0.729156 14.8943 1.11327 15.578 1.797C16.2617 2.48072 16.6458 3.40805 16.6458 4.37499C16.6458 5.34193 16.2617 6.26926 15.578 6.95298C14.8943 7.63671 13.9669 8.02082 13 8.02082C12.0331 8.02082 11.1057 7.63671 10.422 6.95298C9.73828 6.26926 9.35417 5.34193 9.35417 4.37499C9.35417 3.40805 9.73828 2.48072 10.422 1.797C11.1057 1.11327 12.0331 0.729156 13 0.729156ZM5.70833 3.33332C6.29167 3.33332 6.83333 3.48957 7.30208 3.77082C7.14583 5.26041 7.58333 6.73957 8.47917 7.89582C7.95833 8.89582 6.91667 9.58332 5.70833 9.58332C4.87953 9.58332 4.08468 9.25408 3.49862 8.66803C2.91257 8.08198 2.58333 7.28713 2.58333 6.45832C2.58333 5.62952 2.91257 4.83467 3.49862 4.24861C4.08468 3.66256 4.87953 3.33332 5.70833 3.33332ZM20.2917 3.33332C21.1205 3.33332 21.9153 3.66256 22.5014 4.24861C23.0874 4.83467 23.4167 5.62952 23.4167 6.45832C23.4167 7.28713 23.0874 8.08198 22.5014 8.66803C21.9153 9.25408 21.1205 9.58332 20.2917 9.58332C19.0833 9.58332 18.0417 8.89582 17.5208 7.89582C18.4286 6.72315 18.8502 5.24599 18.6979 3.77082C19.1667 3.48957 19.7083 3.33332 20.2917 3.33332ZM6.22917 14.0104C6.22917 11.8542 9.26042 10.1042 13 10.1042C16.7396 10.1042 19.7708 11.8542 19.7708 14.0104V15.8333H6.22917V14.0104ZM0.5 15.8333V14.2708C0.5 12.8229 2.46875 11.6042 5.13542 11.25C4.52083 11.9583 4.14583 12.9375 4.14583 14.0104V15.8333H0.5ZM25.5 15.8333H21.8542V14.0104C21.8542 12.9375 21.4792 11.9583 20.8646 11.25C23.5312 11.6042 25.5 12.8229 25.5 14.2708V15.8333Z" fill="white" fill-opacity="0.5"/>
</svg>
