<svg width="43" height="25" viewBox="0 0 43 25" fill="none" xmlns="http://www.w3.org/2000/svg">
<path d="M21.5 0C23.1004 0 24.6353 0.635774 25.767 1.76746C26.8987 2.89914 27.5345 4.43404 27.5345 6.03448C27.5345 7.63493 26.8987 9.16982 25.767 10.3015C24.6353 11.4332 23.1004 12.069 21.5 12.069C19.8995 12.069 18.3647 11.4332 17.233 10.3015C16.1013 9.16982 15.4655 7.63493 15.4655 6.03448C15.4655 4.43404 16.1013 2.89914 17.233 1.76746C18.3647 0.635774 19.8995 0 21.5 0ZM9.43102 4.31034C10.3965 4.31034 11.2931 4.56897 12.069 5.03448C11.8103 7.5 12.5345 9.94828 14.0172 11.8621C13.1552 13.5172 11.431 14.6552 9.43102 14.6552C8.05921 14.6552 6.74359 14.1102 5.77357 13.1402C4.80356 12.1702 4.25861 10.8546 4.25861 9.48276C4.25861 8.11095 4.80356 6.79532 5.77357 5.82531C6.74359 4.85529 8.05921 4.31034 9.43102 4.31034ZM33.569 4.31034C34.9408 4.31034 36.2564 4.85529 37.2264 5.82531C38.1964 6.79532 38.7414 8.11095 38.7414 9.48276C38.7414 10.8546 38.1964 12.1702 37.2264 13.1402C36.2564 14.1102 34.9408 14.6552 33.569 14.6552C31.569 14.6552 29.8448 13.5172 28.9827 11.8621C30.4853 9.92109 31.183 7.47614 30.931 5.03448C31.7069 4.56897 32.6034 4.31034 33.569 4.31034ZM10.2931 21.9828C10.2931 18.4138 15.3103 15.5172 21.5 15.5172C27.6896 15.5172 32.7069 18.4138 32.7069 21.9828V25H10.2931V21.9828ZM0.810333 25V22.4138C0.810333 20.0172 4.06895 18 8.48275 17.4138C7.46551 18.5862 6.84482 20.2069 6.84482 21.9828V25H0.810333ZM42.1896 25H36.1552V21.9828C36.1552 20.2069 35.5345 18.5862 34.5172 17.4138C38.931 18 42.1896 20.0172 42.1896 22.4138V25Z" fill="#2F9CF2"/>
</svg>
